<mxfile host="app.diagrams.net" modified="2023-04-13T17:15:05.329Z" agent="Mozilla/5.0 (Windows NT 10.0; Win64; x64) AppleWebKit/537.36 (KHTML, like Gecko) Chrome/111.0.0.0 Safari/537.36" etag="caq_Sit7q2rZ6Bk9txuN" version="21.1.7" type="github">
  <diagram name="Страница 1" id="nmGSD1aTg_gYbcxPT3eR">
    <mxGraphModel dx="2062" dy="684" grid="1" gridSize="10" guides="1" tooltips="1" connect="1" arrows="1" fold="1" page="1" pageScale="1" pageWidth="827" pageHeight="1169" math="0" shadow="0">
      <root>
        <mxCell id="0" />
        <mxCell id="1" parent="0" />
        <mxCell id="RSqXlv4PR8sOh5hfdWu_-1" value="&lt;font style=&quot;font-size: 14px;&quot;&gt;Нам необходимо разработать интернет-ресурс &lt;br&gt;для фанатского сервера одной известной MMORPG — что-то вроде доски объявлений. &lt;br&gt;Пользователи нашего ресурса должны иметь возможность зарегистрироваться в нём по e-mail, &lt;br&gt;получив письмо с кодом подтверждения регистрации. &lt;br&gt;После регистрации им становится доступно создание и редактирование объявлений. &lt;br&gt;Объявления состоят из заголовка и текста, внутри которого могут быть картинки, встроенные видео и другой контент. &lt;br&gt;Пользователи могут отправлять отклики на объявления других пользователей, состоящие из простого текста. &lt;br&gt;При отправке отклика пользователь должен получить e-mail с оповещением о нём. &lt;br&gt;Также пользователю должна быть доступна приватная страница с откликами на его объявления, &lt;br&gt;внутри которой он может фильтровать отклики по объявлениям, удалять их и принимать &lt;br&gt;(при принятии отклика пользователю, оставившему отклик, также должно прийти уведомление). &lt;br&gt;Кроме того, пользователь обязательно должен определить объявление в одну из следующих категорий: &lt;br&gt;Танки, Хилы, ДД, Торговцы, Гилдмастеры, Квестгиверы, Кузнецы, Кожевники, Зельевары, Мастера заклинаний.&lt;/font&gt;&lt;div style=&quot;-webkit-font-smoothing: antialiased; box-sizing: border-box; outline: none; margin: 0px; padding: 0px; border: 0px; vertical-align: baseline; pointer-events: auto; font-family: &amp;quot;Source Sans Pro&amp;quot;; background-color: rgb(255, 255, 255); -webkit-tap-highlight-color: transparent !important; font-size: 14px;&quot;&gt;&lt;font style=&quot;font-size: 14px;&quot;&gt;&lt;br style=&quot;-webkit-font-smoothing: antialiased; box-sizing: border-box; outline: none; pointer-events: none !important; -webkit-tap-highlight-color: transparent !important;&quot;&gt;&lt;/font&gt;&lt;/div&gt;&lt;div style=&quot;-webkit-font-smoothing: antialiased; box-sizing: border-box; outline: none; margin: 0px; padding: 0px; border: 0px; vertical-align: baseline; pointer-events: auto; font-family: &amp;quot;Source Sans Pro&amp;quot;; background-color: rgb(255, 255, 255); -webkit-tap-highlight-color: transparent !important; font-size: 14px;&quot;&gt;&lt;font style=&quot;font-size: 14px;&quot;&gt;Также мы бы хотели иметь возможность отправлять пользователям новостные рассылки.&lt;/font&gt;&lt;/div&gt;" style="text;html=1;align=center;verticalAlign=middle;resizable=0;points=[];autosize=1;fillColor=default;" vertex="1" parent="1">
          <mxGeometry x="-808" y="20" width="790" height="270" as="geometry" />
        </mxCell>
      </root>
    </mxGraphModel>
  </diagram>
</mxfile>
